<!DOCTYPE svg PUBLIC "-//W3C//DTD SVG 1.1//EN" "http://www.w3.org/Graphics/SVG/1.1/DTD/svg11.dtd">
<!-- Uploaded to: SVG Repo, www.svgrepo.com, Transformed by: SVG Repo Mixer Tools -->
<svg version="1.1" id="Layer_1" xmlns="http://www.w3.org/2000/svg" xmlns:xlink="http://www.w3.org/1999/xlink" viewBox="-51.2 -51.2 614.40 614.40" xml:space="preserve" width="800px" height="800px" fill="#000000">
<g id="SVGRepo_bgCarrier" stroke-width="0">
<path transform="translate(-51.2, -51.2), scale(19.2)" d="M16,27.82718859116236C18.299048455687917,28.46186359507029,20.769512763157753,30.216486827889597,22.919428405368016,29.183869331637403C25.04721033385322,28.161882792061277,24.78124015338808,24.929335900009903,26.103904827958157,22.97422194401976C27.41087215724865,21.042311222695336,29.877969291263256,19.982941520214474,30.6362417669758,17.777161502266686C31.431686290934454,15.463249692814257,31.86225967529865,12.491443831503283,30.375600644700732,10.548053809052593C28.793201244256856,8.479510085803716,25.487073405233847,9.054236973512445,23.124679599547655,7.957899204221896C21.507241541022847,7.207279883776438,20.238474409539492,5.990014300847334,18.681425156425057,5.121030491581429C16.661947695762297,3.9939670971620194,14.876149972311122,1.973270900900083,12.56526330814539,2.0647254499727623C10.27497759102354,2.1553647057852463,8.43434923119984,4.006289852591492,6.779370241379178,5.592060543454069C5.161227052350513,7.14253584166835,4.115513209230539,9.107469264671936,3.1198087442138824,11.115187783020167C2.0429673218006528,13.286509235382361,0.5700074026300109,15.437831662462314,0.6961078066285875,17.858228941138815C0.8238264505455425,20.309687052060816,1.8846435835373951,22.892822200724382,3.8125792879060594,24.412369120509933C5.715829518976953,25.91245961608586,8.498417875393626,25.193164530604296,10.83190181645728,25.846988385925187C12.634503962887317,26.352063335980926,14.195473865904203,27.32903135207689,16,27.82718859116236" fill="#b57eec" strokewidth="0"/>
</g>
<g id="SVGRepo_tracerCarrier" stroke-linecap="round" stroke-linejoin="round"/>
<g id="SVGRepo_iconCarrier"> <path style="fill:#D0D8D7;" d="M95.458,68.21H27.817C12.454,68.21,0,80.664,0,96.027v281.071c0,15.362,12.454,27.817,27.817,27.817 h67.641"/> <g> <path style="fill:#E4EAEA;" d="M273.106,489.955h-102.4c-16.928,0-30.043-14.814-27.988-31.611l1.283-10.442l5.263-42.991h102.4 l-5.263,42.991l-1.283,10.442C243.063,475.142,256.178,489.955,273.106,489.955z"/> <path style="fill:#E4EAEA;" d="M512,77.73v317.666c0,5.263-4.265,9.515-9.515,9.515H44.227c-5.251,0-9.515-4.253-9.515-9.515V77.73 c0-5.263,4.265-9.515,9.515-9.515h458.258C507.735,68.215,512,72.468,512,77.73z"/> </g> <path style="fill:#9619b8;" d="M512,77.73v265.432H34.711V77.73c0-5.263,4.265-9.515,9.515-9.515h458.258 C507.735,68.215,512,72.468,512,77.73z"/> <polygon style="fill:#D0D8D7;" points="251.664,404.911 246.401,447.903 144.001,447.903 149.264,404.911 "/> <path style="fill:#7A8280;" d="M273.359,379.118c-8.076,0-11.947-10.406-5.823-15.658c2.889-2.478,7.125-2.845,10.396-0.896 c3.115,1.858,4.841,5.586,4.198,9.164C281.377,375.927,277.652,379.118,273.359,379.118z"/> <rect x="107.651" y="22.045" style="fill:#b27df2;" width="331.422" height="321.123"/> <rect x="107.651" y="312.486" style="fill:#bb70d7;" width="331.422" height="30.687"/> <rect x="145.071" y="246.556" style="fill:#b636f2;" width="256.582" height="44.545"/> <circle style="fill:#9619b8;" cx="273.356" cy="134.296" r="69.494"/> <path style="fill:#b636f2;" d="M312.189,191.938c-11.095,7.484-24.46,11.856-38.834,11.856s-27.738-4.372-38.834-11.856 c3.504-18.247,19.565-32.039,38.834-32.039S308.685,173.692,312.189,191.938z"/> <path style="fill:#bb70d7;" d="M273.357,212.699c-43.23,0-78.4-35.17-78.4-78.4s35.17-78.4,78.4-78.4s78.4,35.17,78.4,78.4 S316.586,212.699,273.357,212.699z M273.357,73.717c-33.405,0-60.581,27.176-60.581,60.581s27.176,60.581,60.581,60.581 s60.581-27.176,60.581-60.581S306.762,73.717,273.357,73.717z"/> <circle style="fill:#ff9ec5;" cx="273.356" cy="134.296" r="25.607"/> <polygon style="fill:#b636f2;" points="185.991,98.663 161.937,78.172 137.882,98.663 137.882,22.045 185.991,22.045 "/> <path style="fill:#E4EAEA;" d="M328.636,470.452H196.685v19.504H348.14l0,0C348.14,479.184,339.407,470.452,328.636,470.452z"/> </g>
</svg>