<!DOCTYPE svg PUBLIC "-//W3C//DTD SVG 1.1//EN" "http://www.w3.org/Graphics/SVG/1.1/DTD/svg11.dtd">

<!-- Uploaded to: SVG Repo, www.svgrepo.com, Transformed by: SVG Repo Mixer Tools -->
<svg width="1000px" height="1000px" viewBox="-102.4 -102.4 1228.80 1228.80" class="icon" version="1.1" xmlns="http://www.w3.org/2000/svg" fill="#000000" transform="matrix(1, 0, 0, 1, 0, 0)rotate(0)">

<g id="SVGRepo_bgCarrier" stroke-width="0" transform="translate(0,0), scale(1)">

<path transform="translate(-102.4, -102.4), scale(38.4)" d="M16,30.78462966438383C18.294337475277867,30.09024551504801,18.34543177993303,26.38992205527429,20.458006513198185,25.25714591071487C22.43357865911279,24.19783143368839,25.131797312867313,25.93942766150095,27.085591544698307,24.840464256916682C29.03784183818827,23.74236928141675,30.486351042960383,21.60120889474337,30.878427072074288,19.395903888390702C31.26989336772476,17.194028442020297,29.935275604770307,15.098369347978922,29.19266035724619,12.988861363612934C28.51414397739518,11.061435653474478,28.14468629386262,8.908616892369981,26.683664190947262,7.480062111963701C25.250737323633206,6.078978225423295,23.19415478446586,5.459443444090843,21.209256512036706,5.182867392522001C19.44676633113796,4.937281720987678,17.776751045880403,6.09059375251335,16,5.991398587357253C14.087589247726813,5.884629605367413,12.407703435118282,4.384125810133392,10.502891277141131,4.585136117699127C8.437705631532076,4.803070258903404,6.552229880172401,5.881900687467166,4.91628997885574,7.161036208048223C3.074589155993153,8.601055452588247,1.1821729411520212,10.23112532236759,0.4446954381628032,12.449603241609326C-0.30325804987350846,14.699594992005343,-0.5234803760759701,17.514148012960472,0.8267444277677747,19.463196569615985C2.2659138722515673,21.54063665260713,5.753894180190444,20.963949151550032,7.564522598459082,22.727068750247767C9.063130460579558,24.18635485545188,8.508203998820418,26.971179758419012,10.020775772415227,28.415987043483476C11.590654565034646,29.915533944887144,13.922099330987507,31.413508939557513,16,30.78462966438383" fill="#cf7eec" strokewidth="0"/>

</g>

<g id="SVGRepo_tracerCarrier" stroke-linecap="round" stroke-linejoin="round" stroke="#CCCCCC" stroke-width="2.048"/>

<g id="SVGRepo_iconCarrier">

<path d="M864 992H160c-70.4 0-128-57.6-128-128V160c0-70.4 57.6-128 128-128h704c70.4 0 128 57.6 128 128v704c0 70.4-57.6 128-128 128z" fill="#FFFFFF"/>

<path d="M32 144.8v169.6h960V144.8c0-62.4-50.4-112.8-112.8-112.8H144.8C82.4 32 32 82.4 32 144.8z" fill="#dfa9ea"/>

<path d="M164 168.8m-56.8 0a56.8 56.8 0 1 0 113.6 0 56.8 56.8 0 1 0-113.6 0Z" fill="#d898fb"/>

<path d="M476 168.8m-56.8 0a56.8 56.8 0 1 0 113.6 0 56.8 56.8 0 1 0-113.6 0Z" fill="#d898fb"/>

<path d="M476 232.8c-35.2 0-64.8-28.8-64.8-64.8 0-35.2 28.8-64.8 64.8-64.8 35.2 0 64.8 28.8 64.8 64.8-0.8 36-29.6 64.8-64.8 64.8z m0-112.8c-26.4 0-48.8 21.6-48.8 48.8s21.6 48.8 48.8 48.8 48.8-21.6 48.8-48.8-22.4-48.8-48.8-48.8z" fill="#7d5eb5"/>

<path d="M320 168.8m-56.8 0a56.8 56.8 0 1 0 113.6 0 56.8 56.8 0 1 0-113.6 0Z" fill="#d898fb"/>

<path d="M164 232.8c-35.2 0-64.8-28.8-64.8-64.8 0-35.2 28.8-64.8 64.8-64.8 35.2 0 64.8 28.8 64.8 64.8s-28.8 64.8-64.8 64.8z m0-112.8c-26.4 0-48.8 21.6-48.8 48.8s21.6 48.8 48.8 48.8 48.8-21.6 48.8-48.8-21.6-48.8-48.8-48.8zM476 232.8c-35.2 0-64.8-28.8-64.8-64.8 0-35.2 28.8-64.8 64.8-64.8 35.2 0 64.8 28.8 64.8 64.8-0.8 36-29.6 64.8-64.8 64.8z m0-112.8c-26.4 0-48.8 21.6-48.8 48.8s21.6 48.8 48.8 48.8 48.8-21.6 48.8-48.8-22.4-48.8-48.8-48.8zM320 232.8c-35.2 0-64.8-28.8-64.8-64.8 0-35.2 28.8-64.8 64.8-64.8s64.8 28.8 64.8 64.8-29.6 64.8-64.8 64.8zM320 120c-26.4 0-48.8 21.6-48.8 48.8s21.6 48.8 48.8 48.8 48.8-21.6 48.8-48.8S346.4 120 320 120zM32 306.4h960v16H32zM864 834.4H160c-4.8 0-8-3.2-8-8s3.2-8 8-8h704c4.8 0 8 3.2 8 8s-3.2 8-8 8zM480 450.4H160c-4.8 0-8-3.2-8-8s3.2-8 8-8h320c4.8 0 8 3.2 8 8s-3.2 8-8 8zM480 578.4H160c-4.8 0-8-3.2-8-8s3.2-8 8-8h320c4.8 0 8 3.2 8 8s-3.2 8-8 8zM480 706.4H160c-4.8 0-8-3.2-8-8s3.2-8 8-8h320c4.8 0 8 3.2 8 8s-3.2 8-8 8z" fill="#7d5eb5"/>

<path d="M864 1000H160c-75.2 0-136-60.8-136-136V160c0-75.2 60.8-136 136-136h704c75.2 0 136 60.8 136 136v704c0 75.2-60.8 136-136 136zM160 40C93.6 40 40 93.6 40 160v704c0 66.4 53.6 120 120 120h704c66.4 0 120-53.6 120-120V160c0-66.4-53.6-120-120-120H160z" fill="#7d5eb5"/>

<path d="M871.2 224.8H636.8c-31.2 0-56.8-25.6-56.8-56.8 0-31.2 25.6-56.8 56.8-56.8h234.4c31.2 0 56.8 25.6 56.8 56.8 0 32-25.6 56.8-56.8 56.8z" fill="#FFFFFF"/>

<path d="M871.2 232.8H636.8c-35.2 0-64.8-28.8-64.8-64.8 0-35.2 28.8-64.8 64.8-64.8h234.4c35.2 0 64.8 28.8 64.8 64.8s-28.8 64.8-64.8 64.8zM636.8 120c-26.4 0-48.8 21.6-48.8 48.8s21.6 48.8 48.8 48.8h234.4c26.4 0 48.8-21.6 48.8-48.8s-21.6-48.8-48.8-48.8H636.8z" fill="#7d5eb5"/>

<path d="M608 442.4h256v256H608z" fill="#d898fb"/>

<path d="M838.4 706.4H633.6c-18.4 0-33.6-15.2-33.6-33.6V468c0-18.4 15.2-33.6 33.6-33.6h204.8c18.4 0 33.6 15.2 33.6 33.6v204.8c0 18.4-15.2 33.6-33.6 33.6z m-204.8-256c-9.6 0-17.6 8-17.6 17.6v204.8c0 9.6 8 17.6 17.6 17.6h204.8c9.6 0 17.6-8 17.6-17.6V468c0-9.6-8-17.6-17.6-17.6H633.6z" fill="#7d5eb5"/>

</g>

</svg>